<svg width="18" height="18" viewBox="0 0 18 18" fill="none" xmlns="http://www.w3.org/2000/svg">
<path d="M1.5 18C1.1 18 0.75 17.85 0.45 17.55C0.15 17.25 0 16.9 0 16.5V12.2H1.5V16.5H5.8V18H1.5ZM12.2 18V16.5H16.5V12.2H18V16.5C18 16.9 17.85 17.25 17.55 17.55C17.25 17.85 16.9 18 16.5 18H12.2ZM5.6 12.25L2.35 9L5.6 5.75L6.65 6.825L4.475 9L6.65 11.175L5.6 12.25ZM12.4 12.25L11.35 11.175L13.525 9L11.35 6.825L12.4 5.75L15.65 9L12.4 12.25ZM0 5.8V1.5C0 1.1 0.15 0.75 0.45 0.45C0.75 0.15 1.1 0 1.5 0H5.8V1.5H1.5V5.8H0ZM16.5 5.8V1.5H12.2V0H16.5C16.9 0 17.25 0.15 17.55 0.45C17.85 0.75 18 1.1 18 1.5V5.8H16.5Z" fill="black"/>
</svg>
