<svg width="16" height="16" viewBox="0 0 16 16" fill="none" xmlns="http://www.w3.org/2000/svg">
<path d="M1.375 15.775C1.075 15.775 0.8125 15.6625 0.5875 15.4375C0.3625 15.2125 0.25 14.95 0.25 14.65V3.4C0.25 3.1 0.3625 2.8375 0.5875 2.6125C0.8125 2.3875 1.075 2.275 1.375 2.275H8.96875L7.84375 3.4H1.375V14.65H12.625V8.125L13.75 7V14.65C13.75 14.95 13.6375 15.2125 13.4125 15.4375C13.1875 15.6625 12.925 15.775 12.625 15.775H1.375ZM10.4125 2.425L11.2188 3.2125L5.875 8.5375V10.15H7.46875L12.8313 4.7875L13.6188 5.575L7.9375 11.275H4.75V8.0875L10.4125 2.425ZM13.6188 5.575L10.4125 2.425L12.2875 0.549997C12.5 0.337497 12.7644 0.231247 13.0808 0.231247C13.3972 0.231247 13.664 0.343747 13.8813 0.568747L15.4563 2.1625C15.6688 2.3875 15.775 2.65295 15.775 2.95885C15.775 3.26475 15.6625 3.5243 15.4375 3.7375L13.6188 5.575Z" fill="#9EA4AC"/>
</svg>
