<svg width="20" height="14" viewBox="0 0 20 14" fill="none" xmlns="http://www.w3.org/2000/svg">
<path d="M6.99999 11.8748L11.875 6.9998L6.99999 2.1248L2.12499 6.9998L6.99999 11.8748ZM6.47499 13.4748L0.524988 7.5248C0.374988 7.3748 0.299988 7.1998 0.299988 6.9998C0.299988 6.7998 0.374988 6.6248 0.524988 6.4748L6.47499 0.524805C6.62499 0.374805 6.79999 0.299805 6.99999 0.299805C7.19999 0.299805 7.37499 0.374805 7.52499 0.524805L13.25 6.2498H19.25C19.4667 6.2498 19.6458 6.32064 19.7875 6.4623C19.9292 6.60397 20 6.78314 20 6.9998C20 7.21647 19.9292 7.39564 19.7875 7.5373C19.6458 7.67897 19.4667 7.7498 19.25 7.7498H13.25L7.52499 13.4748C7.37499 13.6248 7.19999 13.6998 6.99999 13.6998C6.79999 13.6998 6.62499 13.6248 6.47499 13.4748Z" fill="black"/>
</svg>
