<svg width="22" height="22" viewBox="0 0 22 22" fill="none" xmlns="http://www.w3.org/2000/svg">
<path d="M0.75 4.725C0.533333 4.725 0.354167 4.65417 0.2125 4.5125C0.0708333 4.37083 0 4.19167 0 3.975V2.8C0 2.03333 0.275 1.375 0.825 0.825C1.375 0.275 2.03333 0 2.8 0H3.975C4.19167 0 4.37083 0.0708333 4.5125 0.2125C4.65417 0.354167 4.725 0.533333 4.725 0.75C4.725 0.966667 4.65417 1.14583 4.5125 1.2875C4.37083 1.42917 4.19167 1.5 3.975 1.5H2.8C2.43333 1.5 2.125 1.625 1.875 1.875C1.625 2.125 1.5 2.43333 1.5 2.8V3.975C1.5 4.19167 1.42917 4.37083 1.2875 4.5125C1.14583 4.65417 0.966667 4.725 0.75 4.725ZM2.8 22C2.03333 22 1.375 21.725 0.825 21.175C0.275 20.625 0 19.9667 0 19.2V18.025C0 17.8083 0.0708333 17.6292 0.2125 17.4875C0.354167 17.3458 0.533333 17.275 0.75 17.275C0.966667 17.275 1.14583 17.3458 1.2875 17.4875C1.42917 17.6292 1.5 17.8083 1.5 18.025V19.2C1.5 19.5667 1.625 19.875 1.875 20.125C2.125 20.375 2.43333 20.5 2.8 20.5H3.975C4.19167 20.5 4.37083 20.5708 4.5125 20.7125C4.65417 20.8542 4.725 21.0333 4.725 21.25C4.725 21.4667 4.65417 21.6458 4.5125 21.7875C4.37083 21.9292 4.19167 22 3.975 22H2.8ZM18.025 21.9C17.8083 21.9 17.6292 21.8292 17.4875 21.6875C17.3458 21.5458 17.275 21.3667 17.275 21.15C17.275 20.9333 17.3458 20.7542 17.4875 20.6125C17.6292 20.4708 17.8083 20.4 18.025 20.4H19.2C19.5667 20.4 19.875 20.275 20.125 20.025C20.375 19.775 20.5 19.4667 20.5 19.1V17.925C20.5 17.7083 20.5708 17.5292 20.7125 17.3875C20.8542 17.2458 21.0333 17.175 21.25 17.175C21.4667 17.175 21.6458 17.2458 21.7875 17.3875C21.9292 17.5292 22 17.7083 22 17.925V19.1C22 19.8667 21.725 20.525 21.175 21.075C20.625 21.625 19.9667 21.9 19.2 21.9H18.025ZM21.25 4.725C21.0333 4.725 20.8542 4.65417 20.7125 4.5125C20.5708 4.37083 20.5 4.19167 20.5 3.975V2.8C20.5 2.43333 20.375 2.125 20.125 1.875C19.875 1.625 19.5667 1.5 19.2 1.5H18.025C17.8083 1.5 17.6292 1.42917 17.4875 1.2875C17.3458 1.14583 17.275 0.966667 17.275 0.75C17.275 0.533333 17.3458 0.354167 17.4875 0.2125C17.6292 0.0708333 17.8083 0 18.025 0H19.2C19.9667 0 20.625 0.275 21.175 0.825C21.725 1.375 22 2.03333 22 2.8V3.975C22 4.19167 21.9292 4.37083 21.7875 4.5125C21.6458 4.65417 21.4667 4.725 21.25 4.725ZM10.2 18.825L4.7 15.6C4.46667 15.4667 4.2875 15.2833 4.1625 15.05C4.0375 14.8167 3.975 14.5667 3.975 14.3V7.875C3.975 7.60833 4.0375 7.35833 4.1625 7.125C4.2875 6.89167 4.46667 6.70833 4.7 6.575L10.225 3.3C10.4583 3.16667 10.7167 3.1 11 3.1C11.2833 3.1 11.5417 3.16667 11.775 3.3L17.3 6.575C17.5333 6.70833 17.7125 6.89167 17.8375 7.125C17.9625 7.35833 18.025 7.60833 18.025 7.875V14.3C18.025 14.5667 17.9583 14.8167 17.825 15.05C17.6917 15.2833 17.5083 15.4667 17.275 15.6L11.7 18.825C11.4667 18.9583 11.2167 19.025 10.95 19.025C10.6833 19.025 10.4333 18.9583 10.2 18.825ZM10.25 17.1V11.5L5.5 8.775V14.25L10.25 17.1ZM11.75 17.1L16.525 14.25V8.775L11.75 11.5V17.1ZM11 10.15L15.75 7.4L11 4.675L6.25 7.4L11 10.15Z" fill="black"/>
</svg>
