<svg width="18" height="20" viewBox="0 0 18 20" fill="none" xmlns="http://www.w3.org/2000/svg">
<path d="M9 19.7752C8.86667 19.7752 8.7375 19.7585 8.6125 19.7252C8.4875 19.6919 8.36667 19.6419 8.25 19.5752L0.75 15.2752C0.516667 15.1419 0.333333 14.9627 0.2 14.7377C0.0666667 14.5127 0 14.2585 0 13.9752V5.7752C0 5.49186 0.0708334 5.23353 0.2125 5.0002C0.354167 4.76686 0.541667 4.58353 0.775 4.4502L8.275 0.375195C8.39167 0.308529 8.50833 0.262695 8.625 0.237695C8.74167 0.212695 8.86667 0.200195 9 0.200195C9.13333 0.200195 9.25833 0.212695 9.375 0.237695C9.49167 0.262695 9.60833 0.308529 9.725 0.375195L17.225 4.4502C17.4583 4.58353 17.6458 4.76686 17.7875 5.0002C17.9292 5.23353 18 5.49186 18 5.7752V13.9752C18 14.2585 17.9333 14.5127 17.8 14.7377C17.6667 14.9627 17.4833 15.1419 17.25 15.2752L9.75 19.5752C9.63333 19.6419 9.5125 19.6919 9.3875 19.7252C9.2625 19.7585 9.13333 19.7752 9 19.7752ZM6.15 7.5502C6.53333 7.16686 6.97083 6.85436 7.4625 6.6127C7.95417 6.37103 8.46667 6.2502 9 6.2502C9.53333 6.2502 10.0458 6.37103 10.5375 6.6127C11.0292 6.85436 11.4667 7.16686 11.85 7.5502L15.675 5.3002L9 1.7502L2.325 5.3002L6.15 7.5502ZM8.25 17.8502V13.6752C7.38333 13.4419 6.66667 12.9877 6.1 12.3127C5.53333 11.6377 5.25 10.8669 5.25 10.0002C5.25 9.83353 5.25833 9.65853 5.275 9.4752C5.29167 9.29186 5.34167 9.09186 5.425 8.8752L1.5 6.5502V13.9752L8.25 17.8502ZM9 12.2502C9.63333 12.2502 10.1667 12.0294 10.6 11.5877C11.0333 11.146 11.25 10.6169 11.25 10.0002C11.25 9.36686 11.0333 8.83353 10.6 8.4002C10.1667 7.96686 9.63333 7.7502 9 7.7502C8.38333 7.7502 7.85417 7.96686 7.4125 8.4002C6.97083 8.83353 6.75 9.36686 6.75 10.0002C6.75 10.6169 6.97083 11.146 7.4125 11.5877C7.85417 12.0294 8.38333 12.2502 9 12.2502ZM9.75 17.8502L16.5 13.9752V6.5502L12.575 8.8752C12.6583 9.10853 12.7083 9.3127 12.725 9.4877C12.7417 9.6627 12.75 9.83353 12.75 10.0002C12.75 10.8669 12.4667 11.6377 11.9 12.3127C11.3333 12.9877 10.6167 13.4419 9.75 13.6752V17.8502Z" fill="black"/>
</svg>
