<svg width="18" height="18" viewBox="0 0 18 18" fill="none" xmlns="http://www.w3.org/2000/svg">
<path d="M1.5 18C1.1 18 0.75 17.85 0.45 17.55C0.15 17.25 0 16.9 0 16.5V1.5C0 1.1 0.15 0.75 0.45 0.45C0.75 0.15 1.1 0 1.5 0H16.5C16.9 0 17.25 0.15 17.55 0.45C17.85 0.75 18 1.1 18 1.5V16.5C18 16.9 17.85 17.25 17.55 17.55C17.25 17.85 16.9 18 16.5 18H1.5ZM1.5 16.5H16.5V1.5H1.5V16.5ZM8.6 13.85H9.4C9.48333 13.85 9.55833 13.8208 9.625 13.7625C9.69167 13.7042 9.73333 13.6333 9.75 13.55L9.95 12.5C10.2833 12.4 10.5667 12.275 10.8 12.125C11.0333 11.975 11.25 11.8 11.45 11.6L12.7 11.975C12.7833 12.0083 12.8708 12.0042 12.9625 11.9625C13.0542 11.9208 13.1167 11.8583 13.15 11.775L13.5 11.025C13.5333 10.9417 13.5417 10.8542 13.525 10.7625C13.5083 10.6708 13.4583 10.6 13.375 10.55L12.475 9.975C12.5417 9.625 12.575 9.3 12.575 9C12.575 8.7 12.5417 8.375 12.475 8.025L13.375 7.45C13.4583 7.4 13.5083 7.32917 13.525 7.2375C13.5417 7.14583 13.5333 7.05833 13.5 6.975L13.15 6.225C13.1167 6.14167 13.0542 6.07917 12.9625 6.0375C12.8708 5.99583 12.7833 5.99167 12.7 6.025L11.45 6.4C11.25 6.2 11.0333 6.025 10.8 5.875C10.5667 5.725 10.2833 5.6 9.95 5.5L9.75 4.45C9.73333 4.36667 9.69167 4.29583 9.625 4.2375C9.55833 4.17917 9.48333 4.15 9.4 4.15H8.6C8.51667 4.15 8.44167 4.17917 8.375 4.2375C8.30833 4.29583 8.26667 4.36667 8.25 4.45L8.05 5.5C7.71667 5.6 7.43333 5.725 7.2 5.875C6.96667 6.025 6.75 6.2 6.55 6.4L5.3 6.025C5.21667 5.99167 5.12917 5.99583 5.0375 6.0375C4.94583 6.07917 4.88333 6.14167 4.85 6.225L4.5 6.975C4.46667 7.05833 4.45833 7.14583 4.475 7.2375C4.49167 7.32917 4.54167 7.4 4.625 7.45L5.525 8.025C5.45833 8.375 5.425 8.7 5.425 9C5.425 9.3 5.45833 9.625 5.525 9.975L4.625 10.55C4.54167 10.6 4.49167 10.6708 4.475 10.7625C4.45833 10.8542 4.46667 10.9417 4.5 11.025L4.85 11.775C4.88333 11.8583 4.94583 11.9208 5.0375 11.9625C5.12917 12.0042 5.21667 12.0083 5.3 11.975L6.55 11.6C6.75 11.8 6.96667 11.975 7.2 12.125C7.43333 12.275 7.71667 12.4 8.05 12.5L8.25 13.55C8.26667 13.6333 8.30833 13.7042 8.375 13.7625C8.44167 13.8208 8.51667 13.85 8.6 13.85ZM9 11.125C8.4 11.125 7.89583 10.9208 7.4875 10.5125C7.07917 10.1042 6.875 9.6 6.875 9C6.875 8.4 7.07917 7.89583 7.4875 7.4875C7.89583 7.07917 8.4 6.875 9 6.875C9.6 6.875 10.1042 7.07917 10.5125 7.4875C10.9208 7.89583 11.125 8.4 11.125 9C11.125 9.6 10.9208 10.1042 10.5125 10.5125C10.1042 10.9208 9.6 11.125 9 11.125Z" fill="black"/>
</svg>
